<mxfile host="app.diagrams.net" modified="2023-09-26T22:19:54.314Z" agent="Mozilla/5.0 (Windows NT 10.0; Win64; x64) AppleWebKit/537.36 (KHTML, like Gecko) Chrome/117.0.0.0 Safari/537.36 LikeWise/100.6.7895.96" version="21.8.2" etag="A1OWRw5j-ceTisIRQmiK" type="github">
  <diagram name="PÃ¡gina-1" id="H62KJk5KTSclJAo1fKNf">
    <mxGraphModel>
      <root>
        <mxCell id="0" />
        <mxCell id="1" parent="0" />
      </root>
    </mxGraphModel>
  </diagram>
</mxfile>
